<svg xmlns="http://www.w3.org/2000/svg" xmlns:xlink="http://www.w3.org/1999/xlink" width="500" zoomAndPan="magnify" viewBox="0 0 375 374.999991" height="500" preserveAspectRatio="xMidYMid meet" version="1.2"><g id="4300909297"><path style=" stroke:none;fill-rule:nonzero;fill:#1db954;fill-opacity:1;" d="M 315.851562 170.332031 L 246.988281 140.867188 C 243.019531 139.171875 240.140625 135.628906 239.289062 131.394531 L 224.527344 57.964844 C 222.382812 47.304688 208.953125 43.734375 201.796875 51.917969 L 152.488281 108.300781 C 149.644531 111.546875 145.390625 113.195312 141.101562 112.695312 L 66.703125 104.039062 C 55.910156 102.785156 48.355469 114.460938 53.925781 123.792969 L 92.316406 188.109375 C 94.527344 191.816406 94.773438 196.371094 92.976562 200.296875 L 61.757812 268.382812 C 57.230469 278.261719 65.996094 289.050781 76.597656 286.632812 L 149.625 270 C 153.832031 269.042969 158.246094 270.210938 161.421875 273.140625 L 216.527344 323.871094 C 224.527344 331.230469 237.492188 326.226562 238.472656 315.398438 L 245.21875 240.804688 C 245.605469 236.503906 248.085938 232.671875 251.847656 230.550781 L 317.121094 193.820312 C 326.59375 188.488281 325.84375 174.609375 315.851562 170.332031 Z M 250.996094 189.296875 L 222.875 205.117188 C 219.632812 206.941406 217.5 210.238281 217.164062 213.945312 L 214.257812 246.082031 C 213.414062 255.410156 202.246094 259.71875 195.351562 253.378906 L 171.613281 231.527344 C 168.878906 229.007812 165.082031 228 161.453125 228.820312 L 129.996094 235.988281 C 120.863281 238.070312 113.3125 228.777344 117.214844 220.261719 L 130.660156 190.929688 C 132.210938 187.550781 132 183.625 130.089844 180.433594 L 113.550781 152.726562 C 108.753906 144.6875 115.257812 134.632812 124.558594 135.710938 L 156.609375 139.441406 C 160.304688 139.871094 163.972656 138.453125 166.417969 135.65625 L 187.660156 111.363281 C 193.824219 104.316406 205.398438 107.394531 207.246094 116.574219 L 213.605469 148.207031 C 214.335938 151.851562 216.816406 154.902344 220.234375 156.371094 L 249.898438 169.0625 C 258.511719 172.746094 259.160156 184.703125 250.996094 189.296875 Z M 250.996094 189.296875 "/></g></svg>